<svg xmlns="http://www.w3.org/2000/svg" xml:space="preserve" fill-rule="evenodd" stroke-linejoin="round" stroke-miterlimit="2" clip-rule="evenodd" viewBox="0 0 330 102" height="100%" class="zeidler-logo">
    <path class="fill" fill="#f6f6ee" fill-rule="nonzero" d="M261.771 83.483c-1.708 0-2.889.2-3.543.601-.654.4-.981 1.214-.981 2.442 0 .641.153 1.128.46 1.461.307.334.794.554 1.462.661l5.084.761c1.602.24 2.723.74 3.363 1.501.641.761.961 1.955.961 3.583 0 2.295-.547 3.957-1.641 4.984-1.095 1.028-2.91 1.542-5.445 1.542a35.04 35.04 0 0 1-4.244-.24c-1.308-.161-2.389-.374-3.243-.641v-3.083c.854.267 1.902.487 3.143.661a27.67 27.67 0 0 0 3.823.26c1.655 0 2.789-.24 3.403-.721.614-.48.921-1.334.921-2.562 0-.774-.173-1.341-.52-1.701-.347-.361-.974-.608-1.882-.741l-5.084-.761c-1.282-.186-2.236-.68-2.863-1.481-.627-.801-.954-1.962-.981-3.483 0-2.082.621-3.603 1.862-4.564 1.241-.961 3.156-1.441 5.745-1.441 1.067 0 2.035.026 2.902.08.868.053 1.782.16 2.743.32v2.923a30.653 30.653 0 0 0-2.442-.261 42.7 42.7 0 0 0-3.003-.1Zm-42.798 6.926h-6.526v-3.002h9.729v12.09c-.748.347-2.082.688-4.004 1.021-1.921.334-3.67.501-5.244.501-4.137 0-7-.974-8.588-2.923-1.588-1.948-2.382-5.271-2.382-9.969 0-4.43.947-7.693 2.842-9.788 1.895-2.096 4.871-3.143 8.928-3.143 1.388 0 2.716.033 3.984.1 1.268.067 2.302.167 3.103.3v3.003a60.945 60.945 0 0 0-3.463-.24 83.407 83.407 0 0 0-3.624-.08c-3.042 0-5.184.747-6.425 2.242-1.242 1.494-1.862 4.03-1.862 7.606 0 1.762.1 3.237.3 4.424.2 1.188.527 2.142.981 2.863a4.47 4.47 0 0 0 2.282 1.942c.988.387 2.429.58 4.324.58.747 0 1.628-.06 2.642-.18a31.817 31.817 0 0 0 3.003-.501v-6.846Zm-28.105 6.446v2.763c-.694.373-1.715.7-3.063.98a20.047 20.047 0 0 1-4.103.421c-3.096 0-5.312-.801-6.646-2.402-1.335-1.602-2.002-4.244-2.002-7.927 0-3.55.694-6.132 2.082-7.747 1.388-1.615 3.603-2.422 6.646-2.422 2.829 0 4.857.633 6.085 1.901 1.228 1.268 1.842 3.383 1.842 6.346 0 .534-.014 1.028-.04 1.481-.027.454-.08 1.001-.16 1.642h-13.132c.027 2.188.474 3.75 1.341 4.684.868.934 2.369 1.401 4.504 1.401a21.53 21.53 0 0 0 3.603-.32c1.255-.214 2.269-.481 3.043-.801Zm96.526 0v2.763c-.694.373-1.715.7-3.063.98a20.057 20.057 0 0 1-4.104.421c-3.096 0-5.311-.801-6.645-2.402-1.335-1.602-2.002-4.244-2.002-7.927 0-3.55.694-6.132 2.082-7.747 1.388-1.615 3.603-2.422 6.646-2.422 2.829 0 4.857.633 6.085 1.901 1.228 1.268 1.842 3.383 1.842 6.346 0 .534-.014 1.028-.04 1.481a26.109 26.109 0 0 1-.161 1.642h-13.131c.026 2.188.473 3.75 1.341 4.684.867.934 2.369 1.401 4.504 1.401a21.53 21.53 0 0 0 3.603-.32c1.255-.214 2.269-.481 3.043-.801Zm-160.303 0v2.763c-.694.373-1.715.7-3.062.98a20.057 20.057 0 0 1-4.104.421c-3.096 0-5.312-.801-6.646-2.402-1.335-1.602-2.002-4.244-2.002-7.927 0-3.55.694-6.132 2.082-7.747 1.388-1.615 3.603-2.422 6.646-2.422 2.829 0 4.858.633 6.085 1.901 1.228 1.268 1.842 3.383 1.842 6.346 0 .534-.013 1.028-.04 1.481-.027.454-.08 1.001-.16 1.642H114.6c.027 2.188.474 3.75 1.341 4.684.868.934 2.369 1.401 4.504 1.401 1.148 0 2.349-.107 3.604-.32 1.254-.214 2.268-.481 3.042-.801Zm-79.27 0v2.763c-.694.373-1.715.7-3.063.98a20.057 20.057 0 0 1-4.104.421c-3.096 0-5.311-.801-6.646-2.402-1.334-1.602-2.001-4.244-2.001-7.927 0-3.55.694-6.132 2.082-7.747 1.387-1.615 3.603-2.422 6.645-2.422 2.83 0 4.858.633 6.086 1.901 1.228 1.268 1.841 3.383 1.841 6.346 0 .534-.013 1.028-.04 1.481-.026.454-.08 1.001-.16 1.642H35.33c.026 2.188.473 3.75 1.341 4.684.867.934 2.369 1.401 4.504 1.401a21.53 21.53 0 0 0 3.603-.32c1.254-.214 2.269-.481 3.043-.801Zm273.123 0v2.763c-.694.373-1.715.7-3.063.98a20.057 20.057 0 0 1-4.104.421c-3.096 0-5.311-.801-6.646-2.402-1.334-1.602-2.001-4.244-2.001-7.927 0-3.55.694-6.132 2.081-7.747 1.388-1.615 3.604-2.422 6.646-2.422 2.83 0 4.858.633 6.086 1.901 1.228 1.268 1.841 3.383 1.841 6.346 0 .534-.013 1.028-.04 1.481-.026.454-.08 1.001-.16 1.642h-13.131c.026 2.188.473 3.75 1.341 4.684.867.934 2.369 1.401 4.504 1.401a21.54 21.54 0 0 0 3.603-.32c1.254-.214 2.269-.481 3.043-.801Zm-153.497-22.78h3.283v26.624h-2.842l-.241-1.842h-.08c-.774.721-1.715 1.261-2.822 1.621-1.108.361-2.382.541-3.824.541-2.695 0-4.624-.801-5.785-2.402-1.161-1.602-1.741-4.217-1.741-7.847 0-3.63.707-6.246 2.122-7.847 1.414-1.602 3.776-2.402 7.086-2.402.934 0 1.808.073 2.622.22.814.147 1.555.353 2.222.62v-7.286Zm72.264 26.944c-2.028 0-3.516-.487-4.464-1.461-.947-.975-1.421-2.516-1.421-4.625 0-2.135.574-3.649 1.722-4.544 1.147-.894 3.096-1.341 5.845-1.341.907 0 1.802.04 2.682.12.881.08 1.708.2 2.483.361v-1.922c0-1.468-.374-2.522-1.121-3.163-.748-.64-1.949-.961-3.604-.961-1.227 0-2.308.047-3.243.14-.934.094-1.868.247-2.802.461v-2.843a22.246 22.246 0 0 1 3.263-.56 39.745 39.745 0 0 1 3.783-.16c2.376 0 4.137.553 5.285 1.661 1.148 1.108 1.721 2.823 1.721 5.145v13.372h-3.002l-.16-1.842h-.08c-.801.64-1.835 1.161-3.103 1.561a12.49 12.49 0 0 1-3.784.601ZM90.739 90.77c0 3.736-.687 6.379-2.062 7.927-1.374 1.548-3.73 2.322-7.066 2.322-3.443 0-5.832-.747-7.167-2.242-1.334-1.495-2.001-4.164-2.001-8.007 0-3.764.687-6.413 2.061-7.947 1.375-1.535 3.744-2.302 7.107-2.302 3.443 0 5.825.747 7.146 2.242 1.321 1.494 1.982 4.163 1.982 8.007Zm205.022 9.929h-3.283V80.921h3.003l.16 1.681h.16a13.93 13.93 0 0 1 3.123-1.381 10.862 10.862 0 0 1 3.083-.46h.861c.146 0 .26.013.34.04v3.163a3.087 3.087 0 0 0-.701-.1c-.28-.014-.714-.02-1.301-.02-.961 0-1.902.113-2.822.34-.921.227-1.795.567-2.623 1.021v15.494Zm-232.727 0h-3.283V80.921h3.003l.16 1.681h.16a13.93 13.93 0 0 1 3.123-1.381 10.862 10.862 0 0 1 3.083-.46h.861c.146 0 .26.013.34.04v3.163a3.087 3.087 0 0 0-.701-.1c-.28-.014-.714-.02-1.301-.02-.961 0-1.902.113-2.822.34-.921.227-1.795.567-2.623 1.021v15.494Zm72.425 0h-3.283V80.921h2.842l.16 1.922h.121c1.067-.801 2.181-1.388 3.343-1.762 1.161-.374 2.462-.56 3.903-.56 2.189 0 3.85.547 4.984 1.641 1.135 1.094 1.702 2.709 1.702 4.844v13.693h-3.283V87.407c0-1.335-.374-2.322-1.121-2.963-.747-.64-1.895-.961-3.443-.961-.961 0-1.942.154-2.943.461a13.69 13.69 0 0 0-2.982 1.341v15.414Zm-127.794 0H.379V75.596h7.286c2.562 0 4.597.214 6.105.641 1.508.427 2.716 1.107 3.624 2.042.907.934 1.568 2.195 1.981 3.783.414 1.588.621 3.61.621 6.065 0 4.351-.974 7.534-2.923 9.549-1.948 2.015-5.084 3.023-9.408 3.023Zm321.646 0h-3.283V80.921h3.283v19.778Zm-301.628 0H24.4V80.921h3.283v19.778Zm202.26-26.624v26.624h-3.283V74.075h3.283Zm-122.99 0v26.624h-3.283V74.075h3.283Zm-8.567 0v26.624h-3.283V74.075h3.283Zm143.367 17.656c-1.815 0-3.076.22-3.783.66-.707.441-1.061 1.221-1.061 2.342 0 1.175.294 2.022.881 2.543.587.52 1.548.78 2.882.78 1.041 0 2.109-.16 3.203-.48 1.094-.321 1.989-.721 2.683-1.201v-4.244a38.678 38.678 0 0 0-2.463-.3c-.76-.067-1.541-.1-2.342-.1ZM75.726 90.73c0 2.936.387 4.877 1.161 5.825.774.947 2.348 1.421 4.724 1.421 2.295 0 3.843-.5 4.644-1.501.801-1.001 1.201-2.916 1.201-5.745 0-2.936-.38-4.878-1.141-5.825-.761-.948-2.329-1.422-4.704-1.422-2.322 0-3.884.494-4.684 1.482-.801.987-1.201 2.909-1.201 5.765Zm87.277-7.247c-2.482 0-4.157.521-5.024 1.562-.868 1.041-1.301 2.949-1.301 5.725 0 2.695.38 4.57 1.141 5.625.76 1.054 2.182 1.581 4.263 1.581.988 0 1.935-.127 2.843-.38a9.005 9.005 0 0 0 2.522-1.141V84.284a10.064 10.064 0 0 0-2.042-.601c-.72-.133-1.521-.2-2.402-.2ZM14.831 80.721c-.613-.721-1.468-1.241-2.562-1.562-1.094-.32-2.629-.48-4.604-.48H3.782v18.817h3.883c3.31 0 5.612-.708 6.906-2.122 1.295-1.415 1.942-3.83 1.942-7.247 0-1.895-.134-3.429-.4-4.604-.267-1.174-.694-2.108-1.282-2.802Zm110.098 7.607c-.026-1.762-.413-3.01-1.161-3.744-.747-.734-2.001-1.101-3.763-1.101-1.975 0-3.37.421-4.184 1.261-.814.841-1.221 2.316-1.221 4.424h10.289c0-.053.007-.18.02-.38.014-.2.02-.354.02-.46Zm63.777 0c-.027-1.762-.414-3.01-1.161-3.744-.747-.734-2.002-1.101-3.763-1.101-1.975 0-3.37.421-4.184 1.261-.814.841-1.221 2.316-1.221 4.424h10.289c0-.053.007-.18.02-.38.013-.2.02-.354.02-.46Zm96.526 0c-.027-1.762-.414-3.01-1.161-3.744-.747-.734-2.002-1.101-3.763-1.101-1.976 0-3.37.421-4.184 1.261-.814.841-1.221 2.316-1.221 4.424h10.289c0-.053.007-.18.02-.38.013-.2.02-.354.02-.46Zm33.55 0c-.027-1.762-.414-3.01-1.161-3.744-.748-.734-2.002-1.101-3.764-1.101-1.975 0-3.369.421-4.183 1.261-.814.841-1.221 2.316-1.221 4.424h10.289c0-.053.006-.18.02-.38.013-.2.02-.354.02-.46Zm-273.123 0c-.027-1.762-.414-3.01-1.161-3.744-.748-.734-2.002-1.101-3.764-1.101-1.975 0-3.369.421-4.183 1.261-.814.841-1.221 2.316-1.221 4.424h10.289c0-.053.006-.18.02-.38.013-.2.02-.354.02-.46Zm283.772-10.85h-3.523v-3.403h3.523v3.403Zm-301.628 0H24.28v-3.403h3.523v3.403ZM45.275 50.154V61.18H0V50.154l30.248-39.616H2.83V0h40.591v10.538L13.368 50.154h31.907ZM115.041 0v61.18h-11.709V0h11.709Zm108.895 50.154V61.18h-38.25V0h11.709v50.154h26.541Zm-129.385 0V61.18H53.179V0h40.493v10.538H64.888v14.441h25.174V35.03H64.888v15.124h29.663Zm178.075 0V61.18h-41.372V0h40.493v10.538h-28.784v14.441h25.174V35.03h-25.174v15.124h29.663Zm20.49-9.855V61.18h-11.709V0h21.565c9.042 0 15.498 1.529 19.368 4.586 3.871 3.057 5.806 8.164 5.806 15.319 0 5.139-1.122 9.286-3.366 12.441-2.245 3.155-5.643 5.351-10.197 6.587L330 61.18h-14.051l-13.758-20.881h-9.075ZM146.363 61.18H126.75V0h19.613c6.245 0 11.205.52 14.88 1.561 3.676 1.041 6.619 2.7 8.831 4.977 2.212 2.276 3.822 5.35 4.83 9.22 1.008 3.871 1.512 8.798 1.512 14.783 0 10.603-2.374 18.361-7.123 23.272-4.748 4.911-12.392 7.367-22.93 7.367Zm14.734-46.153c-1.236-1.627-2.96-2.781-5.172-3.464-2.211-.683-5.399-1.025-9.562-1.025h-7.904v39.616h7.904c7.026 0 11.774-1.431 14.246-4.294 2.472-2.862 3.708-7.968 3.708-15.319 0-3.903-.26-7.09-.781-9.562-.52-2.472-1.333-4.456-2.439-5.952Zm155.145 4.878c0-3.382-.992-5.789-2.976-7.22s-5.416-2.147-10.294-2.147h-9.856v20.003h9.856c4.878 0 8.31-.813 10.294-2.439 1.984-1.627 2.976-4.359 2.976-8.197Z"></path>
</svg>